<svg width="24" height="24" viewBox="0 0 24 24" fill="none" xmlns="http://www.w3.org/2000/svg">
  <path d="M22.54 6.42C22.4212 5.94541 22.1794 5.51057 21.8387 5.15941C21.498 4.80824 21.0707 4.55318 20.6 4.42C18.88 4 12 4 12 4C12 4 5.12 4 3.4 4.46C2.92933 4.59318 2.50206 4.84824 2.16135 5.19941C1.82064 5.55057 1.57881 5.98541 1.46 6.46C1.14521 8.20556 0.991255 9.97631 1 11.75C0.988779 13.537 1.14273 15.3213 1.46 17.08C1.59095 17.5398 1.83827 17.9581 2.17811 18.2945C2.51794 18.6308 2.93878 18.8738 3.4 19C5.12 19.46 12 19.46 12 19.46C12 19.46 18.88 19.46 20.6 19C21.0707 18.8668 21.498 18.6118 21.8387 18.2606C22.1794 17.9094 22.4212 17.4746 22.54 17C22.8524 15.3078 23.0063 13.5952 23 11.88C23.0112 10.093 22.8573 8.30869 22.54 6.55V6.42ZM9.75 15.02V8.48L15.5 11.75L9.75 15.02Z" fill="currentColor"/>
</svg>
